<?xml version="1.0" encoding="UTF-8"?>
<!DOCTYPE svg PUBLIC "-//W3C//DTD SVG 1.1//EN" "http://www.w3.org/Graphics/SVG/1.1/DTD/svg11.dtd">
<!-- Creator: CorelDRAW (Versão de avaliação) -->
<svg xmlns="http://www.w3.org/2000/svg" xml:space="preserve" width="122.348mm" height="34.2884mm" version="1.1" style="shape-rendering:geometricPrecision; text-rendering:geometricPrecision; image-rendering:optimizeQuality; fill-rule:evenodd; clip-rule:evenodd"
viewBox="0 0 9875.64 2767.68"
 xmlns:xlink="http://www.w3.org/1999/xlink"
 xmlns:xodm="http://www.corel.com/coreldraw/odm/2003">
 <defs>
  <style type="text/css">
   <![CDATA[
    .fil1 {fill:#ED3237}
    .fil0 {fill:#0053CC}
    .fil2 {fill:#201E1E;fill-rule:nonzero}
    .fil3 {fill:#0053CC;fill-rule:nonzero}
   ]]>
  </style>
 </defs>
 <g id="Layer_x0020_1">
  <metadata id="CorelCorpID_0Corel-Layer"/>
  <g id="_2406917588544">
   <path class="fil0" d="M975.72 2007.95c-122.87,-132.93 -511.3,-533.12 -646.34,-646.33 92,-102.74 91.78,-102.9 204.11,-215.45 54.1,38.05 377.23,368.54 453.57,442.23l796.55 -790.92c68.41,61.15 152.82,138.06 212.63,189.94 -498.36,522.16 -501.46,519.63 -1020.52,1020.53zm1734.89 -718.18l0 64.63c-5.88,49.87 -25.77,102.53 -64.55,158.12 -65.07,93.24 -1033.85,1038.87 -1191.17,1201.38 -27.64,28.57 -54.69,45.62 -79.24,53.77l-64.79 0c-38.71,-16.11 -55.56,-63.16 -29.64,-113.44 288.03,-313.04 1103.66,-1118.28 1247.97,-1269.94 0,-102.25 -3.65,-137.07 -63.19,-186.27 -150.09,-124 -309.65,111.22 -427.23,228.79l-725.71 725.72c-71.18,71.18 -164.11,180.36 -281.77,194.49 -224.68,27 -297.27,-105.68 -371.7,-170.35 -135.02,-117.27 -279.98,-280.14 -408.26,-408.16 -92.76,-88.34 -225.69,-211.29 -250.77,-340.97 0,-72.61 -6.89,-106.68 27.94,-174.05 175.58,-226.66 809.82,-849.87 1057.78,-1096.67 85.78,-85.78 145.31,-161.76 320.7,-156.58 192.37,5.67 1276.81,1062.71 1303.63,1289.52z"/>
   <path class="fil1" d="M2423.04 1646.09c1.97,-3.16 1.72,-6.05 2.36,-9.55 0.67,-3.72 1.29,-6.41 2.03,-10.11 1.36,-6.76 2.85,-12.96 3.8,-19.66 2.01,-14.12 12.36,-64.5 15.3,-79.2 0.72,-3.57 1.2,-5.98 1.92,-9.55 7.16,-35.49 1.84,-29.65 15.61,-32.46 20.35,-4.17 46.71,-8.14 67.96,-12.02l28.65 -5.05c5.9,-1.07 46.7,-7.86 49.43,-9.44l-168.51 -168.51c-16.23,-16.24 -30.96,-36.44 -50.55,-42.33 -18.48,-5.56 -37.24,-0.21 -51.12,13.67l-114.03 114.03c-19.94,19.95 -20.27,47.8 -5.35,67.41 5.28,6.94 199.16,199.43 202.51,202.79z"/>
  </g>
  <g id="_2406917588256">
   <g>
    <path class="fil2" d="M3957.94 1855.25l-66.63 -179.39 -489.78 0 -66.06 179.39 -305.26 0 470.7 -1201.38 291.02 0 470.41 1201.38 -304.4 0zm-470.41 -408.05l318.64 0 -159.47 -428.84 -159.17 428.84zm1500.89 -447.06l241.76 0 0 775.95c0,140.67 -40.72,249.44 -122.45,326.04 -81.72,76.88 -195.34,115.04 -340.56,115.04 -133.84,0 -239.19,-28.48 -315.79,-85.71 -76.32,-57.23 -125.29,-134.4 -147.22,-231.22l270.52 0c27.06,72.32 88.85,108.49 185.09,108.49 57.24,0 103.93,-16.23 139.81,-48.41 35.88,-32.18 53.82,-81.16 53.82,-146.94l0 -22.5c-60.65,47.27 -136.4,70.9 -226.95,70.9 -128.42,0 -233.21,-40.71 -314.08,-122.44 -80.87,-81.73 -121.59,-187.65 -121.59,-317.78 0,-130.42 40.72,-236.35 121.59,-318.36 80.87,-82.01 185.66,-123.01 314.08,-123.01 108.49,0 195.63,36.73 261.98,109.91l0 -89.98zm-358.79 555.26c35.02,34.74 79.73,52.11 134.4,52.11 54.39,0 99.1,-17.37 134.12,-52.11 35.02,-34.73 52.68,-79.44 52.68,-133.83 0,-54.67 -17.65,-99.38 -52.68,-134.4 -35.02,-35.02 -79.73,-52.68 -134.12,-52.68 -54.67,0 -99.38,17.66 -134.4,52.68 -35.02,35.02 -52.68,79.73 -52.68,134.4 0,54.39 17.66,99.1 52.68,133.83zm1682.56 -127.28c0,27.34 -2.57,56.95 -7.4,89.13l-673.16 0c15.38,44.71 42.14,79.45 80.02,104.51 37.87,25.06 83.15,37.31 135.82,37.31 86.29,0 151.77,-30.75 196.2,-92.55l253.43 0c-27.62,95.11 -81.73,170.57 -161.74,226.1 -80.02,55.81 -176.55,83.43 -289.31,83.43 -145.79,0 -263.4,-41.29 -352.53,-124.15 -89.41,-82.86 -134.12,-190.78 -134.12,-323.77 0,-132.97 44.71,-240.9 134.12,-323.77 89.13,-82.86 206.73,-124.15 352.53,-124.15 138.96,0 251.44,41.3 337.43,124.15 85.71,82.86 128.71,190.79 128.71,323.77zm-468.71 -231.22c-50.68,0 -94.82,13.09 -132.41,39.01 -37.3,25.91 -64.07,61.51 -79.44,107.06l419.44 0c-14.52,-45.56 -39.87,-81.15 -76.31,-107.06 -36.45,-25.92 -80.31,-39.01 -131.28,-39.01zm1095.39 -216.7c119.6,0 209.29,37.31 269.1,112.2 59.8,74.6 89.69,178.26 89.69,310.67l0 452.19 -276.21 0 0 -440.52c0,-56.1 -13.38,-99.38 -39.87,-129.56 -26.77,-30.47 -62.08,-45.57 -105.93,-45.57 -48.97,0 -87.42,16.81 -114.76,50.41 -27.62,33.59 -41.29,82.29 -41.29,145.5l0 419.73 -276.21 0 0 -854.27 245.17 0 0 71.77c64.07,-61.8 147.5,-92.55 250.3,-92.55zm1143.8 -321.2l276.22 0 0 1196.25 -238.63 0 0 -89.41c-66.35,73.46 -156.33,110.2 -270.52,110.2 -124.43,0 -226.66,-41.57 -306.97,-125.01 -80.02,-83.43 -120.16,-191.07 -120.16,-322.91 0,-131.84 40.15,-239.47 120.16,-322.91 80.31,-83.43 182.53,-125.01 306.97,-125.01 93.12,0 170.56,25.06 232.93,74.89l0 -396.09zm-321.2 904.66c35.02,35.31 79.73,52.97 134.4,52.97 54.39,0 99.1,-17.65 134.12,-52.97 35.02,-35.31 52.68,-80.58 52.68,-135.54 0,-54.95 -17.65,-100.24 -52.68,-135.54 -35.02,-35.31 -79.73,-52.97 -134.12,-52.97 -54.67,0 -99.38,17.66 -134.4,52.97 -35.02,35.31 -52.68,80.59 -52.68,135.54 0,54.96 17.66,100.24 52.68,135.54z"/>
    <path class="fil3" d="M9447.43 1428.12c0,27.34 -2.57,56.95 -7.4,89.13l-673.16 0c15.38,44.71 42.14,79.45 80.02,104.51 37.87,25.06 83.15,37.31 135.82,37.31 86.29,0 151.77,-30.75 196.2,-92.55l253.43 0c-27.62,95.11 -81.73,170.57 -161.74,226.1 -80.02,55.81 -176.55,83.43 -289.31,83.43 -145.79,0 -263.4,-41.29 -352.53,-124.15 -89.41,-82.86 -134.12,-190.78 -134.12,-323.77 0,-132.97 44.71,-240.9 134.12,-323.77 89.13,-82.86 206.73,-124.15 352.53,-124.15 138.96,0 251.44,41.3 337.43,124.15 85.71,82.86 128.71,190.79 128.71,323.77zm-468.71 -231.22c-50.68,0 -94.82,13.09 -132.41,39.01 -37.3,25.91 -64.07,61.51 -79.44,107.06l419.44 0c-14.52,-45.56 -39.87,-81.15 -76.31,-107.06 -36.45,-25.92 -80.31,-39.01 -131.28,-39.01zm850.5 -375.59c-30.75,30.75 -68.05,46.13 -112.19,46.13 -43.85,0 -81.16,-15.38 -112.2,-46.13 -30.75,-31.04 -46.13,-68.34 -46.13,-112.19 0,-44.14 15.38,-81.44 46.13,-112.2 31.04,-31.04 68.34,-46.41 112.2,-46.41 44.14,0 81.44,15.38 112.19,46.41 31.04,30.75 46.41,68.06 46.41,112.2 0,43.85 -15.38,81.15 -46.41,112.19zm25.63 179.68l0 854.27 -276.21 0 0 -854.27 276.21 0z"/>
   </g>
   <path class="fil2" d="M6593.36 2213.54c-21.16,0 -36.67,-3.88 -46.51,-11.66 -9.86,-7.81 -14.62,-19.07 -14.21,-33.78l26.48 0c-0.06,7.01 2.79,12.49 8.57,16.44 5.75,3.96 14.29,5.95 25.58,5.95 9.6,0 17.24,-1.73 22.86,-5.21 5.64,-3.45 8.47,-8.04 8.47,-13.75 0,-3.39 -0.99,-6.22 -3.06,-8.54 -2.03,-2.29 -4.78,-4.08 -8.2,-5.35 -3.45,-1.26 -7.41,-2.32 -11.83,-3.16 -4.46,-0.82 -9.14,-1.65 -14.09,-2.42 -4.92,-0.8 -9.87,-1.7 -14.85,-2.69 -4.95,-1 -9.67,-2.46 -14.09,-4.32 -4.46,-1.9 -8.4,-4.22 -11.83,-6.98 -3.45,-2.75 -6.18,-6.44 -8.24,-11.09 -2.03,-4.62 -3.06,-10 -3.06,-16.11 0,-13.49 4.88,-23.79 14.65,-30.9 9.77,-7.11 24.02,-10.66 42.76,-10.66 18.84,0 33.35,3.85 43.62,11.56 10.23,7.68 15.12,18.07 14.59,31.2l-26.55 0c0.3,-6.25 -2.29,-11.07 -7.84,-14.52 -5.55,-3.42 -13.62,-5.15 -24.18,-5.15 -9.53,0 -16.91,1.57 -22.09,4.72 -5.21,3.16 -7.81,7.6 -7.81,13.38 0,3.42 1.03,6.34 3.02,8.71 2.03,2.36 4.75,4.21 8.18,5.55 3.45,1.33 7.37,2.45 11.83,3.39 4.45,0.96 9.14,1.86 14.05,2.69 4.95,0.83 9.86,1.76 14.75,2.79 4.92,0.99 9.61,2.42 14.09,4.32 4.46,1.89 8.44,4.15 11.87,6.81 3.45,2.66 6.21,6.21 8.27,10.7 2.1,4.48 3.16,9.66 3.23,15.58 0.06,6.25 -1.07,11.89 -3.42,17.04 -2.32,5.12 -5.82,9.61 -10.47,13.42 -4.62,3.82 -10.73,6.81 -18.27,8.9 -7.58,2.13 -16.31,3.16 -26.25,3.16zm123.78 -141.89l0 139.56 -27.24 0 0 -139.56 27.24 0zm97.81 141.89c-21.16,0 -36.67,-3.88 -46.51,-11.66 -9.86,-7.81 -14.62,-19.07 -14.21,-33.78l26.48 0c-0.06,7.01 2.79,12.49 8.57,16.44 5.75,3.96 14.29,5.95 25.58,5.95 9.6,0 17.24,-1.73 22.86,-5.21 5.64,-3.45 8.47,-8.04 8.47,-13.75 0,-3.39 -0.99,-6.22 -3.06,-8.54 -2.03,-2.29 -4.78,-4.08 -8.2,-5.35 -3.45,-1.26 -7.41,-2.32 -11.83,-3.16 -4.46,-0.82 -9.14,-1.65 -14.09,-2.42 -4.92,-0.8 -9.87,-1.7 -14.85,-2.69 -4.95,-1 -9.67,-2.46 -14.09,-4.32 -4.46,-1.9 -8.4,-4.22 -11.83,-6.98 -3.45,-2.75 -6.18,-6.44 -8.24,-11.09 -2.03,-4.62 -3.06,-10 -3.06,-16.11 0,-13.49 4.88,-23.79 14.65,-30.9 9.77,-7.11 24.02,-10.66 42.76,-10.66 18.84,0 33.35,3.85 43.62,11.56 10.23,7.68 15.12,18.07 14.59,31.2l-26.55 0c0.3,-6.25 -2.29,-11.07 -7.84,-14.52 -5.55,-3.42 -13.62,-5.15 -24.18,-5.15 -9.53,0 -16.91,1.57 -22.09,4.72 -5.21,3.16 -7.81,7.6 -7.81,13.38 0,3.42 1.03,6.34 3.02,8.71 2.03,2.36 4.75,4.21 8.18,5.55 3.45,1.33 7.37,2.45 11.83,3.39 4.45,0.96 9.14,1.86 14.05,2.69 4.95,0.83 9.86,1.76 14.75,2.79 4.92,0.99 9.61,2.42 14.09,4.32 4.46,1.89 8.44,4.15 11.87,6.81 3.45,2.66 6.21,6.21 8.27,10.7 2.1,4.48 3.16,9.66 3.23,15.58 0.06,6.25 -1.07,11.89 -3.42,17.04 -2.32,5.12 -5.82,9.61 -10.47,13.42 -4.62,3.82 -10.73,6.81 -18.27,8.9 -7.58,2.13 -16.31,3.16 -26.25,3.16zm202.62 -141.89l0 24.42 -44.58 0 0 115.14 -27.24 0 0 -115.14 -44.58 0 0 -24.42 116.4 0zm138.37 24.42l-78.73 0 0 31.17 70.56 0 0 22.29 -70.56 0 0 37.28 78.73 0 0 24.42 -105.97 0 0 -139.56 105.97 0 0 24.42zm160.99 -24.42l37.28 0 0 139.56 -27.27 0 0 -100.43 -39.3 100.43 -26.08 0 -39.43 -100.53 0 100.53 -27.24 0 0 -139.56 37.28 0 42.43 107.94 42.35 -107.94zm177.1 139.56l-9.44 -24.51 -62.78 0 -9.54 24.51 -28.4 0 55.74 -140.16 27.07 0 55.84 140.16 -28.5 0zm-63.65 -46.71l45.65 0 -22.88 -59.2 -22.76 59.2zm236.46 -92.85c23.92,0 42.52,5.98 55.82,17.94 13.25,11.99 19.9,28.74 19.9,50.3 0,22.55 -6.64,40.09 -19.9,52.59 -13.29,12.49 -31.89,18.73 -55.82,18.73l-47.41 0 0 -139.56 47.41 0zm0 115.14c15.05,0 26.71,-4.12 34.98,-12.33 8.27,-8.2 12.39,-19.74 12.39,-34.58 0,-13.89 -4.12,-24.68 -12.39,-32.33 -8.27,-7.68 -19.93,-11.49 -34.98,-11.49l-20.16 0 0 90.73 20.16 0zm217.66 -90.73l-78.73 0 0 31.17 70.56 0 0 22.29 -70.56 0 0 37.28 78.73 0 0 24.42 -105.97 0 0 -139.56 105.97 0 0 24.42zm206.31 115.14l-9.44 -24.51 -62.78 0 -9.54 24.51 -28.4 0 55.74 -140.16 27.07 0 55.84 140.16 -28.5 0zm-63.65 -46.71l45.65 0 -22.88 -59.2 -22.76 59.2zm183.15 -28.44l69.04 0 0 75.15 -23.46 0 0 -17.51c-11.16,13.29 -27.24,19.93 -48.2,19.93 -21.45,0 -38.43,-6.57 -50.92,-19.73 -12.49,-13.19 -18.73,-31.06 -18.73,-53.65 0,-21.79 6.38,-39.07 19.1,-51.76 12.76,-12.73 30.1,-19.14 52.02,-19.2 18.77,0 34.22,4.48 46.35,13.38 12.12,8.94 19.73,21.66 22.75,38.21l-29.1 0c-2.59,-8.57 -7.38,-15.05 -14.38,-19.47 -7.01,-4.42 -15.55,-6.61 -25.62,-6.61 -13.08,0.06 -23.48,4.18 -31.19,12.33 -7.68,8.14 -11.53,19.16 -11.53,33.12 0,14.68 3.82,26.31 11.49,34.92 7.64,8.56 18.07,12.88 31.22,12.88 11.16,0 20.4,-2.82 27.71,-8.43 7.27,-5.62 11.73,-13.58 13.29,-23.99l-39.83 0 0 -19.57zm213.25 -40l-78.73 0 0 31.17 70.56 0 0 22.29 -70.56 0 0 37.28 78.73 0 0 24.42 -105.97 0 0 -139.56 105.97 0 0 24.42zm137.34 -24.42l27.14 0 0 139.56 -30.26 0 -68.04 -101.83 0 101.83 -27.24 0 0 -139.56 30.66 0 67.74 101.32 0 -101.32zm114.24 0c23.92,0 42.52,5.98 55.82,17.94 13.25,11.99 19.9,28.74 19.9,50.3 0,22.55 -6.64,40.09 -19.9,52.59 -13.29,12.49 -31.89,18.73 -55.82,18.73l-47.41 0 0 -139.56 47.41 0zm0 115.14c15.05,0 26.71,-4.12 34.98,-12.33 8.27,-8.2 12.39,-19.74 12.39,-34.58 0,-13.89 -4.12,-24.68 -12.39,-32.33 -8.27,-7.68 -19.93,-11.49 -34.98,-11.49l-20.16 0 0 90.73 20.16 0zm202.62 24.42l-9.44 -24.51 -62.78 0 -9.54 24.51 -28.4 0 55.74 -140.16 27.07 0 55.84 140.16 -28.5 0zm-63.65 -46.71l45.65 0 -22.88 -59.2 -22.76 59.2zm243.78 -92.85l37.28 0 0 139.56 -27.27 0 0 -100.43 -39.3 100.43 -26.08 0 -39.43 -100.53 0 100.53 -27.24 0 0 -139.56 37.28 0 42.43 107.94 42.35 -107.94zm183.04 24.42l-78.73 0 0 31.17 70.56 0 0 22.29 -70.56 0 0 37.28 78.73 0 0 24.42 -105.97 0 0 -139.56 105.97 0 0 24.42zm137.34 -24.42l27.14 0 0 139.56 -30.26 0 -68.04 -101.83 0 101.83 -27.24 0 0 -139.56 30.66 0 67.74 101.32 0 -101.32zm175.93 0l0 24.42 -44.58 0 0 115.14 -27.24 0 0 -115.14 -44.58 0 0 -24.42 116.4 0zm149.2 121.85c-13.25,13.42 -30.73,20.13 -52.49,20.13 -21.73,0 -39.2,-6.71 -52.39,-20.13 -13.22,-13.42 -19.8,-31.22 -19.8,-53.35 0,-14.02 2.99,-26.38 8.94,-37.11 5.98,-10.76 14.42,-19.07 25.35,-24.91 10.93,-5.88 23.59,-8.84 37.94,-8.84 21.73,0 39.2,6.51 52.46,19.47 13.22,12.99 19.83,30.13 19.83,51.39 0,22.12 -6.61,39.93 -19.83,53.35zm-52.46 -5.45c13.29,0 23.96,-4.35 31.96,-13.05 8,-8.7 12.02,-20.3 12.02,-34.85 0,-13.69 -4.02,-24.65 -12.02,-32.92 -8.01,-8.27 -18.67,-12.42 -31.96,-12.42 -13.32,0.06 -23.95,4.21 -31.89,12.45 -7.93,8.24 -11.92,19.2 -11.92,32.89 0,14.55 3.99,26.14 11.99,34.85 7.97,8.7 18.57,13.05 31.83,13.05zm166.3 25.48c-21.16,0 -36.67,-3.88 -46.51,-11.66 -9.86,-7.81 -14.62,-19.07 -14.21,-33.78l26.48 0c-0.06,7.01 2.79,12.49 8.57,16.44 5.75,3.96 14.29,5.95 25.58,5.95 9.6,0 17.24,-1.73 22.86,-5.21 5.64,-3.45 8.47,-8.04 8.47,-13.75 0,-3.39 -0.99,-6.22 -3.06,-8.54 -2.03,-2.29 -4.78,-4.08 -8.2,-5.35 -3.45,-1.26 -7.41,-2.32 -11.83,-3.16 -4.46,-0.82 -9.14,-1.65 -14.09,-2.42 -4.92,-0.8 -9.87,-1.7 -14.85,-2.69 -4.95,-1 -9.67,-2.46 -14.09,-4.32 -4.46,-1.9 -8.4,-4.22 -11.83,-6.98 -3.45,-2.75 -6.18,-6.44 -8.24,-11.09 -2.03,-4.62 -3.06,-10 -3.06,-16.11 0,-13.49 4.88,-23.79 14.65,-30.9 9.77,-7.11 24.02,-10.66 42.76,-10.66 18.84,0 33.35,3.85 43.62,11.56 10.23,7.68 15.12,18.07 14.59,31.2l-26.55 0c0.3,-6.25 -2.29,-11.07 -7.84,-14.52 -5.55,-3.42 -13.62,-5.15 -24.18,-5.15 -9.53,0 -16.91,1.57 -22.09,4.72 -5.21,3.16 -7.81,7.6 -7.81,13.38 0,3.42 1.03,6.34 3.02,8.71 2.03,2.36 4.75,4.21 8.18,5.55 3.45,1.33 7.37,2.45 11.83,3.39 4.45,0.96 9.14,1.86 14.05,2.69 4.95,0.83 9.86,1.76 14.75,2.79 4.92,0.99 9.61,2.42 14.09,4.32 4.46,1.89 8.44,4.15 11.87,6.81 3.45,2.66 6.21,6.21 8.27,10.7 2.1,4.48 3.16,9.66 3.23,15.58 0.06,6.25 -1.07,11.89 -3.42,17.04 -2.32,5.12 -5.82,9.61 -10.47,13.42 -4.62,3.82 -10.73,6.81 -18.27,8.9 -7.58,2.13 -16.31,3.16 -26.25,3.16z"/>
  </g>
 </g>
</svg>
