<svg width="372" height="350" viewBox="0 0 372 350" fill="none" xmlns="http://www.w3.org/2000/svg">
<path d="M106.74 183.542C105.245 183.542 104.037 182.334 104.037 180.838C104.037 179.343 105.245 178.135 106.74 178.135C113.298 178.135 118.877 168.759 118.877 157.601C118.877 156.105 120.085 154.897 121.58 154.897C123.018 154.897 124.226 156.105 124.226 157.601C124.226 172.153 116.576 183.542 106.74 183.542Z" fill="#0053CC"/>
<path d="M147.349 183.542C145.853 183.542 144.646 182.334 144.646 180.838C144.646 179.343 145.853 178.135 147.349 178.135C153.906 178.135 159.485 168.759 159.485 157.601C159.485 156.105 160.693 154.897 162.131 154.897C163.627 154.897 164.835 156.105 164.835 157.601C164.835 172.153 157.127 183.542 147.349 183.542Z" fill="#0053CC"/>
<path d="M187.957 183.542C186.461 183.542 185.253 182.334 185.253 180.838C185.253 179.343 186.461 178.135 187.957 178.135C194.514 178.135 200.036 168.759 200.036 157.601C200.036 156.105 201.244 154.897 202.739 154.897C204.235 154.897 205.442 156.105 205.442 157.601C205.442 172.153 197.735 183.542 187.957 183.542Z" fill="#0053CC"/>
<path d="M228.508 183.542C227.07 183.542 225.862 182.334 225.862 180.838C225.862 179.343 227.07 178.135 228.508 178.135C235.122 178.135 240.644 168.759 240.644 157.601C240.644 156.105 241.852 154.897 243.347 154.897C244.843 154.897 245.993 156.105 245.993 157.601C245.993 172.153 238.343 183.542 228.508 183.542Z" fill="#0053CC"/>
<path d="M269.115 183.542C267.62 183.542 266.412 182.334 266.412 180.838C266.412 179.343 267.62 178.135 269.115 178.135C275.672 178.135 281.251 168.759 281.251 157.601C281.251 156.105 282.459 154.897 283.955 154.897C285.393 154.897 286.601 156.105 286.601 157.601C286.601 172.153 278.951 183.542 269.115 183.542Z" fill="#0053CC"/>
<path d="M309.724 183.542C308.228 183.542 307.021 182.334 307.021 180.838C307.021 179.343 308.228 178.135 309.724 178.135C316.281 178.135 321.86 168.759 321.86 157.601C321.86 156.105 323.068 154.897 324.506 154.897C326.002 154.897 327.21 156.105 327.21 157.601C327.21 172.153 319.502 183.542 309.724 183.542Z" fill="#0053CC"/>
<g style="mix-blend-mode:multiply" opacity="0.7">
<path d="M81.3183 160.304H342.625C349.757 160.304 356.027 166.113 356.66 173.188L371.154 336.368C371.787 343.443 366.495 349.252 359.42 349.252H98.0562C90.9814 349.252 84.6544 343.443 84.0217 336.368L69.5845 173.188C68.9518 166.113 74.2435 160.304 81.3183 160.304Z" fill="#318FFF"/>
</g>
<path d="M340.496 160.304H79.132C72.0572 160.304 65.9602 166.113 65.6726 173.188L58.3103 336.368C57.9651 343.443 63.4869 349.252 70.6192 349.252H331.926C339.001 349.252 345.098 343.443 345.385 336.368L352.748 173.188C353.093 166.113 347.571 160.304 340.496 160.304Z" fill="#318FFF"/>
<g style="mix-blend-mode:multiply">
<path d="M83.9058 306.114L90.0028 171.406C90.1178 168.645 92.4186 166.459 95.1794 166.459H323.873C326.577 166.459 328.705 168.645 328.59 171.406L322.493 306.114C322.378 308.817 320.077 311.061 317.374 311.061H88.6223C85.919 311.061 83.7908 308.817 83.9058 306.114Z" fill="#DCE9FF"/>
</g>
<g style="mix-blend-mode:multiply">
<path d="M77.4639 317.099L83.8485 175.603C83.9635 172.727 86.3793 170.427 89.2552 170.427H329.453C332.329 170.427 334.514 172.727 334.399 175.603L328.015 317.099C327.842 319.975 325.426 322.276 322.608 322.276H82.353C79.5346 322.276 77.2914 319.975 77.4639 317.099Z" fill="#DCE9FF"/>
</g>
<path d="M71.5392 328.546L78.2113 180.953C78.3264 177.962 80.8572 175.546 83.8481 175.546H334.399C337.39 175.546 339.691 177.962 339.518 180.953L332.846 328.546C332.731 331.479 330.2 333.895 327.209 333.895H76.6583C73.7249 333.895 71.3666 331.479 71.5392 328.546Z" fill="white"/>
<g opacity="0.8">
<path d="M117.956 240.715H91.3827C88.9094 240.715 86.9538 238.644 87.0688 236.171L88.2767 209.597C88.3917 207.124 90.5199 205.053 92.9932 205.053H119.567C122.04 205.053 123.996 207.124 123.881 209.597L122.673 236.171C122.558 238.644 120.43 240.715 117.956 240.715Z" fill="#DCE9FF"/>
<path d="M158.566 240.715H131.992C129.519 240.715 127.563 238.644 127.678 236.171L128.886 209.597C129.001 207.124 131.129 205.053 133.603 205.053H160.176C162.649 205.053 164.605 207.124 164.49 209.597L163.282 236.171C163.167 238.644 161.039 240.715 158.566 240.715Z" fill="#DCE9FF"/>
<path d="M199.172 240.715H172.599C170.068 240.715 168.17 238.644 168.285 236.171L169.493 209.597C169.608 207.124 171.678 205.053 174.209 205.053H200.783C203.256 205.053 205.212 207.124 205.097 209.597L203.889 236.171C203.774 238.644 201.645 240.715 199.172 240.715Z" fill="#DCE9FF"/>
<path d="M239.781 240.715H213.15C210.676 240.715 208.721 238.644 208.836 236.171L210.044 209.597C210.159 207.124 212.287 205.053 214.76 205.053H241.391C243.865 205.053 245.763 207.124 245.648 209.597L244.497 236.171C244.382 238.644 242.254 240.715 239.781 240.715Z" fill="#DCE9FF"/>
<path d="M280.331 240.715H253.757C251.284 240.715 249.328 238.644 249.443 236.171L250.651 209.597C250.766 207.124 252.894 205.053 255.368 205.053H281.941C284.415 205.053 286.37 207.124 286.255 209.597L285.047 236.171C284.932 238.644 282.804 240.715 280.331 240.715Z" fill="#DCE9FF"/>
<path d="M320.939 240.715H294.366C291.892 240.715 289.937 238.644 290.052 236.171L291.26 209.597C291.375 207.124 293.503 205.053 295.976 205.053H322.55C325.023 205.053 326.979 207.124 326.864 209.597L325.656 236.171C325.541 238.644 323.412 240.715 320.939 240.715Z" fill="#DCE9FF"/>
<path d="M309.666 184.404C307.653 184.404 306.1 182.736 306.157 180.723C306.272 178.825 307.883 177.272 309.781 177.272C311.794 177.272 313.347 178.94 313.232 180.953C313.175 182.851 311.564 184.404 309.666 184.404Z" fill="#318FFF"/>
<path d="M269.057 184.404C267.044 184.404 265.491 182.736 265.606 180.723C265.664 178.825 267.274 177.272 269.172 177.272C271.185 177.272 272.738 178.94 272.681 180.953C272.566 182.851 270.955 184.404 269.057 184.404Z" fill="#318FFF"/>
<path d="M228.507 184.404C226.494 184.404 224.883 182.736 224.998 180.723C225.056 178.825 226.667 177.272 228.565 177.272C230.578 177.272 232.131 178.94 232.073 180.953C231.958 182.851 230.348 184.404 228.507 184.404Z" fill="#318FFF"/>
<path d="M187.899 184.404C185.886 184.404 184.333 182.736 184.391 180.723C184.506 178.825 186.116 177.272 187.957 177.272C189.97 177.272 191.581 178.94 191.465 180.953C191.408 182.851 189.797 184.404 187.899 184.404Z" fill="#318FFF"/>
<path d="M147.291 184.404C145.278 184.404 143.725 182.736 143.782 180.723C143.897 178.825 145.508 177.272 147.406 177.272C149.419 177.272 150.972 178.94 150.857 180.953C150.8 182.851 149.189 184.404 147.291 184.404Z" fill="#318FFF"/>
<path d="M106.683 184.404C104.67 184.404 103.117 182.736 103.232 180.723C103.29 178.825 104.9 177.272 106.798 177.272C108.811 177.272 110.364 178.94 110.307 180.953C110.192 182.851 108.581 184.404 106.683 184.404Z" fill="#318FFF"/>
</g>
<path d="M116.864 197.231H96.4445C95.1791 197.231 94.2012 196.253 94.2588 194.987C94.3163 193.722 95.4091 192.744 96.617 192.744H117.036C118.301 192.744 119.279 193.722 119.222 194.987C119.164 196.253 118.071 197.231 116.864 197.231Z" fill="#0053CC"/>
<path d="M157.471 197.231H137.052C135.787 197.231 134.809 196.253 134.867 194.987C134.924 193.722 136.017 192.744 137.225 192.744H157.644C158.909 192.744 159.887 193.722 159.83 194.987C159.772 196.253 158.679 197.231 157.471 197.231Z" fill="#0053CC"/>
<path d="M198.022 197.231H177.603C176.395 197.231 175.418 196.253 175.475 194.987C175.533 193.722 176.568 192.744 177.833 192.744H198.252C199.46 192.744 200.438 193.722 200.381 194.987C200.323 196.253 199.288 197.231 198.022 197.231Z" fill="#0053CC"/>
<path d="M238.63 197.231H218.211C217.003 197.231 216.025 196.253 216.083 194.987C216.14 193.722 217.176 192.744 218.441 192.744H238.86C240.068 192.744 241.046 193.722 240.989 194.987C240.931 196.253 239.896 197.231 238.63 197.231Z" fill="#0053CC"/>
<path d="M279.239 197.231H258.82C257.555 197.231 256.577 196.253 256.634 194.987C256.692 193.722 257.785 192.744 258.992 192.744H279.412C280.677 192.744 281.655 193.722 281.597 194.987C281.54 196.253 280.447 197.231 279.239 197.231Z" fill="#0053CC"/>
<path d="M319.847 197.231H299.428C298.162 197.231 297.185 196.253 297.242 194.987C297.3 193.722 298.393 192.744 299.6 192.744H320.02C321.285 192.744 322.205 193.722 322.205 194.987C322.148 196.253 321.055 197.231 319.847 197.231Z" fill="#0053CC"/>
<g opacity="0.8">
<path d="M116.115 281.956H89.5419C87.0686 281.956 85.1129 279.943 85.228 277.47L86.4359 250.839C86.5509 248.365 88.6791 246.352 91.1524 246.352H117.726C120.199 246.352 122.155 248.365 122.04 250.839L120.832 277.47C120.717 279.943 118.589 281.956 116.115 281.956Z" fill="#DCE9FF"/>
<path d="M156.724 281.956H130.093C127.62 281.956 125.721 279.943 125.837 277.47L126.987 250.839C127.102 248.365 129.23 246.352 131.703 246.352H158.334C160.808 246.352 162.706 248.365 162.648 250.839L161.44 277.47C161.325 279.943 159.197 281.956 156.724 281.956Z" fill="#DCE9FF"/>
<path d="M197.275 281.956H170.701C168.228 281.956 166.272 279.943 166.387 277.47L167.595 250.839C167.71 248.365 169.838 246.352 172.312 246.352H198.885C201.416 246.352 203.314 248.365 203.199 250.839L201.991 277.47C201.876 279.943 199.805 281.956 197.275 281.956Z" fill="#DCE9FF"/>
<path d="M237.883 281.956H211.309C208.836 281.956 206.88 279.943 206.995 277.47L208.203 250.839C208.318 248.365 210.446 246.352 212.919 246.352H239.493C241.966 246.352 243.922 248.365 243.807 250.839L242.599 277.47C242.484 279.943 240.356 281.956 237.883 281.956Z" fill="#DCE9FF"/>
<path d="M278.491 281.956H251.918C249.445 281.956 247.489 279.943 247.604 277.47L248.812 250.839C248.927 248.365 251.055 246.352 253.528 246.352H280.102C282.575 246.352 284.531 248.365 284.416 250.839L283.208 277.47C283.093 279.943 280.965 281.956 278.491 281.956Z" fill="#DCE9FF"/>
<path d="M319.099 281.956H292.468C289.995 281.956 288.096 279.943 288.212 277.47L289.362 250.839C289.477 248.365 291.605 246.352 294.078 246.352H320.709C323.183 246.352 325.081 248.365 325.023 250.839L323.815 277.47C323.7 279.943 321.572 281.956 319.099 281.956Z" fill="#DCE9FF"/>
</g>
<g opacity="0.8">
<path d="M114.276 323.196H87.6449C85.1716 323.196 83.216 321.183 83.331 318.709L84.5389 292.136C84.6539 289.605 86.7821 287.592 89.2554 287.592H115.886C118.36 287.592 120.258 289.605 120.143 292.136L118.992 318.709C118.877 321.183 116.749 323.196 114.276 323.196Z" fill="#DCE9FF"/>
<path d="M154.826 323.196H128.252C125.779 323.196 123.823 321.183 123.938 318.709L125.146 292.136C125.261 289.605 127.39 287.592 129.863 287.592H156.436C158.91 287.592 160.865 289.605 160.75 292.136L159.542 318.709C159.427 321.183 157.299 323.196 154.826 323.196Z" fill="#DCE9FF"/>
<path d="M195.434 323.196H168.861C166.387 323.196 164.432 321.183 164.547 318.709L165.755 292.136C165.87 289.605 167.998 287.592 170.471 287.592H197.045C199.518 287.592 201.474 289.605 201.359 292.136L200.151 318.709C200.036 321.183 197.908 323.196 195.434 323.196Z" fill="#DCE9FF"/>
<path d="M236.042 323.196H209.468C206.937 323.196 205.039 321.183 205.154 318.709L206.362 292.136C206.42 289.605 208.548 287.592 211.021 287.592H237.652C240.126 287.592 242.081 289.605 241.966 292.136L240.758 318.709C240.643 321.183 238.515 323.196 236.042 323.196Z" fill="#DCE9FF"/>
<path d="M276.65 323.196H250.019C247.546 323.196 245.59 321.183 245.706 318.709L246.913 292.136C247.028 289.605 249.157 287.592 251.63 287.592H278.261C280.734 287.592 282.632 289.605 282.517 292.136L281.367 318.709C281.252 321.183 279.124 323.196 276.65 323.196Z" fill="#DCE9FF"/>
<path d="M317.201 323.196H290.628C288.155 323.196 286.199 321.183 286.314 318.709L287.522 292.136C287.637 289.605 289.765 287.592 292.238 287.592H318.812C321.285 287.592 323.241 289.605 323.126 292.136L321.918 318.709C321.803 321.183 319.675 323.196 317.201 323.196Z" fill="#DCE9FF"/>
</g>
<path d="M106.741 183.541C96.9629 183.541 89.2554 172.153 89.2554 157.601C89.2554 143.048 96.9629 131.66 106.741 131.66C116.577 131.66 124.227 143.048 124.227 157.601C124.227 159.038 123.019 160.246 121.581 160.246C120.085 160.246 118.877 159.038 118.877 157.601C118.877 146.442 113.298 137.009 106.741 137.009C100.184 137.009 94.6046 146.442 94.6046 157.601C94.6046 168.759 100.184 178.135 106.741 178.135C108.236 178.135 109.444 179.343 109.444 180.838C109.444 182.334 108.236 183.541 106.741 183.541Z" fill="#0053CC"/>
<path d="M147.348 183.541C137.513 183.541 129.863 172.153 129.863 157.601C129.863 143.048 137.513 131.66 147.348 131.66C157.127 131.66 164.834 143.048 164.834 157.601C164.834 159.038 163.626 160.246 162.131 160.246C160.693 160.246 159.485 159.038 159.485 157.601C159.485 146.442 153.906 137.009 147.348 137.009C140.791 137.009 135.212 146.442 135.212 157.601C135.212 168.759 140.791 178.135 147.348 178.135C148.844 178.135 149.994 179.343 149.994 180.838C149.994 182.334 148.844 183.541 147.348 183.541Z" fill="#0053CC"/>
<path d="M187.957 183.541C178.121 183.541 170.414 172.153 170.414 157.601C170.414 143.048 178.121 131.66 187.957 131.66C197.735 131.66 205.442 143.048 205.442 157.601C205.442 159.038 204.234 160.246 202.739 160.246C201.244 160.246 200.036 159.038 200.036 157.601C200.036 146.442 194.514 137.009 187.957 137.009C181.342 137.009 175.82 146.442 175.82 157.601C175.82 168.759 181.342 178.135 187.957 178.135C189.395 178.135 190.603 179.343 190.603 180.838C190.603 182.334 189.395 183.541 187.957 183.541Z" fill="#0053CC"/>
<path d="M228.508 183.541C218.729 183.541 211.022 172.153 211.022 157.601C211.022 143.048 218.729 131.66 228.508 131.66C238.343 131.66 245.993 143.048 245.993 157.601C245.993 159.038 244.843 160.246 243.347 160.246C241.852 160.246 240.644 159.038 240.644 157.601C240.644 146.442 235.122 137.009 228.508 137.009C221.95 137.009 216.429 146.442 216.429 157.601C216.429 168.759 221.95 178.135 228.508 178.135C230.003 178.135 231.211 179.343 231.211 180.838C231.211 182.334 230.003 183.541 228.508 183.541Z" fill="#0053CC"/>
<path d="M269.115 183.541C259.337 183.541 251.629 172.153 251.629 157.601C251.629 143.048 259.337 131.66 269.115 131.66C278.951 131.66 286.601 143.048 286.601 157.601C286.601 159.038 285.393 160.246 283.955 160.246C282.459 160.246 281.251 159.038 281.251 157.601C281.251 146.442 275.672 137.009 269.115 137.009C262.558 137.009 256.979 146.442 256.979 157.601C256.979 168.759 262.558 178.135 269.115 178.135C270.611 178.135 271.818 179.343 271.818 180.838C271.818 182.334 270.611 183.541 269.115 183.541Z" fill="#0053CC"/>
<path d="M309.724 183.541C299.888 183.541 292.238 172.153 292.238 157.601C292.238 143.048 299.888 131.66 309.724 131.66C319.502 131.66 327.21 143.048 327.21 157.601C327.21 159.038 326.002 160.246 324.506 160.246C323.068 160.246 321.86 159.038 321.86 157.601C321.86 146.442 316.281 137.009 309.724 137.009C303.167 137.009 297.587 146.442 297.587 157.601C297.587 168.759 303.167 178.135 309.724 178.135C311.219 178.135 312.37 179.343 312.37 180.838C312.37 182.334 311.219 183.541 309.724 183.541Z" fill="#0053CC"/>
<path d="M231.269 242.153C221.836 240.312 211.31 242.498 207.571 252.391C204.523 260.329 208.434 268.957 216.774 271.085C224.137 272.925 236.848 270.682 239.494 262.169C242.485 252.449 230.291 249.285 223.446 248.71C221.376 248.537 221.376 251.758 223.446 251.931C226.552 252.219 230.119 252.391 232.879 254.117C238.689 257.683 236.273 263.492 231.384 266.253C226.552 268.957 218.96 269.704 214.128 266.656C208.837 263.262 208.664 255.842 211.828 251.011C215.969 244.626 223.561 243.936 230.406 245.259C232.419 245.662 233.282 242.556 231.269 242.153Z" fill="#318FFF"/>
<path d="M127.677 205.111C136.708 217.018 146.658 228.119 157.587 238.242C159.082 239.68 161.383 237.379 159.887 235.999C149.132 225.991 139.296 215.177 130.438 203.501C129.23 201.89 126.412 203.443 127.677 205.111Z" fill="#0053CC"/>
<path d="M131.013 236.919C137.8 224.84 149.649 214.544 160.865 206.664C162.591 205.456 160.98 202.695 159.255 203.903C147.579 212.071 135.27 222.712 128.252 235.251C127.217 237.091 129.978 238.702 131.013 236.919Z" fill="#0053CC"/>
<path d="M255.599 215.406C262.616 215.406 269.614 215.406 276.593 215.406C278.664 215.406 278.664 212.185 276.593 212.185C269.614 212.185 262.616 212.185 255.599 212.185C253.528 212.185 253.528 215.406 255.599 215.406Z" fill="#318FFF"/>
<path d="M255.368 221.389C259.433 221.389 263.498 221.389 267.562 221.389C269.633 221.389 269.633 218.167 267.562 218.167C263.498 218.167 259.433 218.167 255.368 218.167C253.298 218.167 253.298 221.389 255.368 221.389Z" fill="#318FFF"/>
<path d="M129.863 297.83C135.883 297.83 141.884 297.83 147.866 297.83C149.937 297.83 149.937 294.609 147.866 294.609C141.884 294.609 135.883 294.609 129.863 294.609C127.792 294.609 127.792 297.83 129.863 297.83Z" fill="#318FFF"/>
<path d="M129.23 304.733C137.014 304.733 144.798 304.733 152.582 304.733C154.653 304.733 154.653 301.512 152.582 301.512C144.798 301.512 137.014 301.512 129.23 301.512C127.159 301.512 127.159 304.733 129.23 304.733Z" fill="#318FFF"/>
<path d="M129.23 311.923C133.103 311.923 136.995 311.923 140.906 311.923C142.977 311.923 142.977 308.702 140.906 308.702C136.995 308.702 133.103 308.702 129.23 308.702C127.159 308.702 127.159 311.923 129.23 311.923Z" fill="#0053CC"/>
<path d="M2.91942 117.223L8.32617 116.993L5.91039 127.289C5.91039 127.289 2.8619 125.276 0.618677 122.63C-0.30162 121.537 -0.186583 119.869 0.906269 118.949L2.91942 117.223Z" fill="#FF8B7B"/>
<path d="M14.653 122.515L12.2372 130.97L5.91016 127.289L8.32593 116.993L14.653 122.515Z" fill="#FF8B7B"/>
<path d="M13.6176 72.5308L2.45898 73.5661L27.9972 349.368L39.1558 348.332L13.6176 72.5308Z" fill="#0053CC"/>
<path d="M35.8773 70.5171L24.7188 71.4949L50.257 347.296L61.4156 346.261L35.8773 70.5171Z" fill="#0053CC"/>
<path d="M24.7188 71.4956L13.6177 72.5309L39.1559 348.332L50.257 347.297L24.7188 71.4956Z" fill="#056CE8"/>
<path d="M22.3604 52.2271L12.3522 53.1474L2.45898 73.5664L35.8773 70.5179L22.3604 52.2271Z" fill="#DCE9FF"/>
<path d="M16.6094 44.4038L12.353 53.1466L22.3612 52.2263L16.6094 44.4038Z" fill="#0053CC"/>
<path d="M100.817 59.9917C101.909 61.1996 102.887 62.2349 103.865 63.3853C104.862 64.5357 105.821 65.686 106.741 66.8364C108.639 69.1371 110.422 71.5529 112.148 74.0262C115.599 78.9728 118.705 84.2645 121.121 90.1314C121.408 90.8791 121.638 91.6269 121.926 92.4322L122.328 93.5825C122.559 94.2727 122.731 95.0205 122.846 95.6532C123.191 98.4716 122.559 100.6 121.926 102.44C120.603 106.064 118.705 108.652 116.807 111.183C112.838 116.072 108.467 120.041 103.635 123.665L99.3211 119.006C102.657 114.692 106.051 110.09 108.639 105.546C109.904 103.361 111.055 101.002 111.457 99.1618C111.63 98.2415 111.63 97.4938 111.515 97.4363C111.515 97.3787 111.457 97.4363 111.457 97.4363L111.055 96.631C110.825 96.0558 110.595 95.4806 110.307 94.9054C108.006 90.304 105.073 85.8175 101.794 81.4461C100.184 79.2604 98.4583 77.1322 96.7327 75.004C95.8891 73.9304 95.0072 72.8759 94.0869 71.8405L91.4985 68.792L100.817 59.9917Z" fill="#FF8B7B"/>
<path d="M92.3608 122.687L97.2499 132.35L102.024 128.208L98.1127 121.364L92.3608 122.687Z" fill="#FF8B7B"/>
<path d="M55.4346 65.6862C52.4436 71.3614 49.3376 76.979 46.1166 82.5392C44.5636 85.3 42.8956 88.0609 41.285 90.8218L38.8117 94.9632L38.179 95.9985C37.8914 96.5162 37.5463 97.0913 37.2012 97.494C36.9136 97.9541 36.626 98.3568 36.2809 98.7019C35.9742 99.0853 35.6674 99.4496 35.3606 99.7947C32.9449 102.556 30.4716 104.741 27.9983 106.985C25.4674 109.113 22.9366 111.183 20.3483 113.197C15.1716 117.223 9.93744 120.962 4.41566 124.528L0.504395 119.524L14.1363 106.122C16.3795 103.879 18.6227 101.635 20.7509 99.3921C22.8791 97.1489 25.0073 94.8481 26.6178 92.6049C26.8479 92.3365 27.0588 92.0681 27.2505 91.7996C27.4231 91.5696 27.5381 91.3395 27.7107 91.1094C27.8832 90.8218 27.8832 90.7068 27.9983 90.5342L28.5734 89.4414L30.7016 85.1275C32.1396 82.2516 33.5776 79.3756 35.073 76.4997C37.9873 70.7862 41.0358 65.1302 44.2185 59.5317L55.4346 65.6862Z" fill="#FF8B7B"/>
<path d="M87.7025 26.8036C87.5874 27.4938 87.8175 28.1265 88.2201 28.2416C88.6803 28.3566 89.1404 27.8965 89.2555 27.2062C89.428 26.5735 89.198 25.9408 88.7378 25.8258C88.3352 25.7107 87.875 26.1709 87.7025 26.8036Z" fill="#0F264C"/>
<path d="M87.7593 28.1265C87.7593 28.1265 88.4496 32.3253 89.715 34.6261C88.277 35.4313 86.3789 34.396 86.3789 34.396L87.7593 28.1265Z" fill="#FF5652"/>
<path d="M89.4857 22.7773C89.409 22.7773 89.3323 22.7581 89.2556 22.7198C89.1981 22.6623 87.9902 21.857 86.3797 22.5472C86.2072 22.6047 85.9196 22.4897 85.8621 22.3172C85.8045 22.0871 85.8621 21.857 86.0921 21.7995C88.1053 20.9367 89.6583 22.0296 89.7158 22.0296C89.8883 22.2021 89.9459 22.4322 89.8308 22.6047C89.7158 22.7198 89.6008 22.7773 89.4857 22.7773Z" fill="#0F264C"/>
<path d="M64.4649 29.3916C65.9029 35.5461 67.5134 46.8772 63.3721 51.0186C63.3721 51.0186 65.3277 57.2881 76.7739 57.2881C89.428 57.2881 82.5833 51.0186 82.5833 51.0186C75.6235 49.3505 75.6235 44.2314 76.6013 39.4573L64.4649 29.3916Z" fill="#FF8B7B"/>
<path d="M61.8187 53.1474C60.8409 51.1918 59.7481 48.8911 61.7612 48.2008C64.0045 47.3956 76.3709 46.5903 80.7424 48.0858C85.0562 49.5238 84.0209 53.5501 84.0209 53.5501L61.8187 53.1474Z" fill="#9FC6FF"/>
<path fill-rule="evenodd" clip-rule="evenodd" d="M45.2533 341.775C44.3905 341.775 43.4702 341.66 43.0676 341.545C42.9525 341.545 42.895 341.487 42.895 341.43C42.895 341.315 42.895 341.257 42.9525 341.199C43.0676 341.142 45.3108 339.531 46.5762 339.819C46.883 339.896 47.0939 340.049 47.2089 340.279C47.4965 340.739 47.3815 341.084 47.2664 341.257C46.9788 341.66 46.1161 341.775 45.2533 341.775ZM43.5852 341.257C44.8507 341.487 46.5762 341.487 46.9213 341.027C46.9788 340.969 47.0939 340.797 46.8638 340.509C46.7871 340.356 46.6529 340.26 46.4612 340.222C45.7134 340.049 44.3905 340.797 43.5852 341.257Z" fill="white"/>
<path fill-rule="evenodd" clip-rule="evenodd" d="M43.0676 341.545C43.0292 341.545 43.0101 341.545 43.0101 341.545C42.9334 341.506 42.895 341.449 42.895 341.372C42.895 341.257 43.0101 338.841 43.9304 338.036C44.1988 337.806 44.4864 337.71 44.7931 337.748C45.3108 337.806 45.4258 338.094 45.4834 338.266C45.6559 339.244 44.0454 341.085 43.1826 341.545C43.1443 341.545 43.1059 341.545 43.0676 341.545ZM44.6781 338.151C44.4864 338.151 44.333 338.209 44.2179 338.324C43.5852 338.841 43.4127 340.279 43.2977 340.969C44.1604 340.337 45.1958 338.899 45.0807 338.381C45.0807 338.324 45.0232 338.151 44.7356 338.151C44.7356 338.151 44.7164 338.151 44.6781 338.151Z" fill="white"/>
<path fill-rule="evenodd" clip-rule="evenodd" d="M95.985 341.775C95.0072 341.775 93.9719 341.66 93.3967 341.545C93.3392 341.545 93.2816 341.488 93.2241 341.373C93.2241 341.315 93.2816 341.258 93.3392 341.2C93.7418 340.97 97.538 338.784 98.4008 340.28C98.6884 340.682 98.5733 340.97 98.4583 341.143C98.1132 341.66 97.0779 341.775 95.985 341.775ZM94.0294 341.258C95.6399 341.488 97.7681 341.43 98.1132 340.912C98.1707 340.912 98.2282 340.797 98.0557 340.51C97.5955 339.647 95.2948 340.625 94.0294 341.258Z" fill="white"/>
<path fill-rule="evenodd" clip-rule="evenodd" d="M93.4542 341.545C93.4158 341.545 93.3775 341.545 93.3392 341.545C93.2625 341.507 93.2241 341.449 93.2241 341.373C93.2241 341.258 93.3967 338.957 94.432 338.094C94.7388 337.826 95.1031 337.711 95.5249 337.749C96.1 337.806 96.2726 338.094 96.2726 338.324C96.4452 339.302 94.547 341.085 93.5117 341.545C93.5117 341.545 93.4925 341.545 93.4542 341.545ZM95.3523 338.152C95.1222 338.152 94.8922 338.228 94.6621 338.382C94.0294 338.957 93.7418 340.337 93.6843 341.027C94.7196 340.395 95.985 338.957 95.9275 338.382C95.87 338.324 95.87 338.209 95.4673 338.152C95.429 338.152 95.3907 338.152 95.3523 338.152Z" fill="white"/>
<path d="M84.1362 341.373H92.5914L92.7065 321.816H84.2513L84.1362 341.373Z" fill="#FF8B7B"/>
<path d="M33.4048 341.373H41.86L45.3686 321.816H36.9134L33.4048 341.373Z" fill="#FF8B7B"/>
<path d="M42.435 340.394H32.9444C32.5993 340.394 32.3117 340.624 32.2542 340.969L30.8738 348.504C30.7012 349.252 31.3339 350 32.1392 350C35.4753 349.942 37.0858 349.712 41.2271 349.712C43.8154 349.712 49.1072 350 52.6733 350C56.1244 350 56.527 346.491 55.0891 346.146C48.4745 344.765 45.9436 342.752 43.8154 340.912C43.4128 340.567 42.9527 340.394 42.435 340.394Z" fill="#14365B"/>
<path d="M92.5338 340.394H83.2733C82.9282 340.394 82.6406 340.624 82.5831 340.969L81.2026 348.504C81.0876 349.252 81.6628 350 82.4681 350C85.8041 349.942 90.5782 349.712 94.777 349.712C99.6661 349.712 103.922 350 109.674 350C113.125 350 113.931 346.491 112.493 346.146C105.821 344.708 100.414 344.593 94.547 341.027C93.9143 340.682 93.224 340.394 92.5338 340.394Z" fill="#14365B"/>
<path d="M47.2658 52.917C39.3858 54.7576 31.1606 76.3271 31.1606 76.3271L47.4959 87.2556C47.4959 87.2556 53.1902 78.8004 57.2741 69.3673C61.5879 59.4741 55.2609 51.0764 47.2658 52.917Z" fill="#0F264C"/>
<path d="M53.4781 66.6641L46.6909 86.738L47.4962 87.2557C47.4962 87.2557 50.5447 82.6542 53.8232 76.4997L53.4781 66.6641Z" fill="#0A1B35"/>
<path d="M99.9531 90.6497C99.8956 100.083 99.3204 111.816 97.9399 126.426H52.7304C52.1552 119.466 55.2037 85.588 47.2661 52.9175C47.2661 52.9175 54.9161 51.3645 62.336 51.0194C68.0878 50.7318 76.428 50.5592 81.5472 51.0194C88.2193 51.5946 94.6039 53.3777 94.6039 53.3777C94.6039 53.3777 98.4576 57.519 99.6655 77.1903C99.8956 81.0441 100.011 85.5305 99.9531 90.6497Z" fill="#0F264C"/>
<path d="M99.9535 90.6495C97.2501 85.703 92.246 75.6372 92.9937 69.9429L99.6659 77.1902C99.896 81.044 100.011 85.5304 99.9535 90.6495Z" fill="#0A1B35"/>
<path d="M85.7471 60.9695C85.0569 69.0221 103.29 88.4058 103.29 88.4058L117.9 76.4995C117.9 76.4995 111.918 66.0886 104.268 58.6687C95.6979 50.3861 86.5524 51.9966 85.7471 60.9695Z" fill="#0F264C"/>
<path d="M92.7061 321.816L92.6486 331.882H84.1934L84.2509 321.816H92.7061Z" fill="#EA7063"/>
<path d="M36.9133 321.816H45.3686L43.528 331.882H35.0728L36.9133 321.816Z" fill="#EA7063"/>
<path d="M65.9599 19.8442C64.752 28.1844 63.6016 32.9585 66.7651 38.1927C71.5967 46.0727 82.4102 44.8648 86.0914 37.1573C89.4274 30.2551 90.8654 17.8311 83.6181 12.5394C76.4858 7.36271 67.2253 11.504 65.9599 19.8442Z" fill="#FF8B7B"/>
<path d="M90.9803 15.8751C87.0691 18.1183 82.8702 18.3484 82.8702 18.3484C80.7995 28.0115 75.1627 39.0551 66.1323 35.8916C62.6237 34.6837 59.2301 26.401 58.885 18.9236C58.2523 19.6713 57.8496 20.6491 57.562 20.9943C56.8143 16.2777 58.0797 12.7691 58.6549 11.2161C61.1282 4.14134 62.7962 8.85785 65.4996 4.54396C67.2252 1.66803 70.3887 0.230074 75.853 0C74.3 0.80526 74.0123 2.07067 76.2556 1.89811C78.5563 1.72556 88.2194 1.20789 93.8562 5.00411C90.06 5.86689 92.3608 11.9063 97.4224 8.68529C95.6968 11.6763 93.3961 14.5522 90.9803 15.8751Z" fill="#0F264C"/>
<path d="M76.4282 25.0202C76.4282 27.2059 77.291 29.3917 78.4414 30.8296C80.1669 33.0728 82.1225 31.98 82.5827 29.5067C82.9853 27.321 82.6402 23.4672 80.4545 22.1443C78.3263 20.8214 76.4282 22.4894 76.4282 25.0202Z" fill="#FF8B7B"/>
<path d="M66.1325 5.40619C64.9246 5.29115 62.2212 4.88852 60.4957 1.95508C60.4957 1.95508 60.3231 8.74227 66.1325 5.40619Z" fill="#0F264C"/>
<path d="M81.8928 126.426C81.8928 126.426 74.818 190.962 70.4466 215.177C65.7301 241.693 47.4392 329.927 47.4392 329.927H31.9092C31.9092 329.927 42.9527 243.822 45.196 217.593C47.6693 189.121 52.7309 126.426 52.7309 126.426H81.8928Z" fill="#9FC6FF"/>
<path d="M49.6826 324.232C49.7401 324.232 48.3021 330.156 48.3021 330.156H30.874L30.9891 324.865L49.6826 324.232Z" fill="#318FFF"/>
<path d="M76.716 149.433C65.73 151.561 68.4909 192.917 70.6191 214.199C73.2649 199.187 76.8311 170.255 79.2469 149.721C78.4991 149.318 77.6363 149.203 76.716 149.433Z" fill="#77B3FC"/>
<path d="M97.9402 126.426C97.9402 126.426 101.564 189.582 101.621 215.35C101.679 242.154 95.697 329.927 95.697 329.927H81.3749C81.3749 329.927 77.5211 243.707 75.9106 217.421C74.07 188.719 68.2031 126.426 68.2031 126.426H97.9402Z" fill="#9FC6FF"/>
<path d="M101.392 118.258L97.3654 118.603C95.9849 118.718 95.0646 120.098 95.4673 121.421L97.0778 127.001C97.7105 129.014 100.126 129.762 101.737 128.496C103.347 127.173 105.418 124.067 106.051 121.364L101.392 118.258Z" fill="#FF8B7B"/>
<path d="M92.3035 319.63C92.246 319.63 92.1885 319.573 92.1885 319.515C93.799 295.185 97.4802 236.459 97.3651 215.349C97.3076 193.78 94.7768 145.522 93.9716 131.257C93.9716 131.2 94.0291 131.142 94.1441 131.142C94.2016 131.142 94.2591 131.2 94.2591 131.257C95.0644 145.522 97.5952 193.78 97.6527 215.349C97.7678 236.459 94.0866 295.242 92.4761 319.515C92.4761 319.573 92.4185 319.63 92.3035 319.63Z" fill="#77B3FC"/>
<path d="M98.2283 324.232C98.3433 324.232 97.6531 330.156 97.6531 330.156H80.2825L79.5923 324.865L98.2283 324.232Z" fill="#318FFF"/>
</svg>
