<?xml version="1.0" encoding="UTF-8"?>
<!DOCTYPE svg PUBLIC "-//W3C//DTD SVG 1.1//EN" "http://www.w3.org/Graphics/SVG/1.1/DTD/svg11.dtd">
<!-- Creator: CorelDRAW (Versão de avaliação) -->
<svg xmlns="http://www.w3.org/2000/svg" xml:space="preserve" width="33.5814mm" height="34.2884mm" version="1.1" style="shape-rendering:geometricPrecision; text-rendering:geometricPrecision; image-rendering:optimizeQuality; fill-rule:evenodd; clip-rule:evenodd"
viewBox="0 0 300.55 306.88"
 xmlns:xlink="http://www.w3.org/1999/xlink"
 xmlns:xodm="http://www.corel.com/coreldraw/odm/2003">
 <defs>
  <style type="text/css">
   <![CDATA[
    .fil1 {fill:#ED3237}
    .fil0 {fill:#0053CC}
   ]]>
  </style>
 </defs>
 <g id="Layer_x0020_1">
  <metadata id="CorelCorpID_0Corel-Layer"/>
  <g id="_2371119630720">
   <path class="fil0" d="M108.19 222.64c-13.62,-14.74 -56.69,-59.11 -71.67,-71.66 10.2,-11.39 10.18,-11.41 22.63,-23.89 6,4.22 41.83,40.86 50.29,49.03l88.32 -87.7c7.59,6.78 16.94,15.31 23.58,21.06 -55.26,57.9 -55.6,57.62 -113.16,113.16zm192.36 -79.63l0 7.17c-0.65,5.53 -2.86,11.37 -7.16,17.53 -7.21,10.34 -114.63,115.19 -132.08,133.21 -3.06,3.17 -6.06,5.06 -8.79,5.96l-7.18 0c-4.29,-1.79 -6.16,-7 -3.29,-12.58 31.94,-34.71 122.37,-123.99 138.37,-140.81 0,-11.34 -0.4,-15.2 -7.01,-20.65 -16.64,-13.75 -34.33,12.33 -47.37,25.37l-80.47 80.47c-7.89,7.89 -18.2,20 -31.24,21.56 -24.91,2.99 -32.96,-11.72 -41.21,-18.89 -14.97,-13 -31.04,-31.06 -45.27,-45.26 -10.29,-9.79 -25.02,-23.43 -27.8,-37.81 0,-8.05 -0.76,-11.83 3.1,-19.3 19.47,-25.13 89.79,-94.23 117.29,-121.6 9.51,-9.51 16.11,-17.94 35.56,-17.36 21.33,0.63 141.57,117.83 144.55,142.98z"/>
   <path class="fil1" d="M268.67 182.52c0.22,-0.35 0.19,-0.67 0.26,-1.06 0.07,-0.41 0.14,-0.71 0.22,-1.12 0.15,-0.75 0.32,-1.44 0.42,-2.18 0.22,-1.57 1.37,-7.15 1.7,-8.78 0.08,-0.4 0.13,-0.66 0.21,-1.06 0.79,-3.94 0.2,-3.29 1.73,-3.6 2.26,-0.46 5.18,-0.9 7.54,-1.33l3.18 -0.56c0.65,-0.12 5.18,-0.87 5.48,-1.05l-18.68 -18.68c-1.8,-1.8 -3.43,-4.04 -5.61,-4.69 -2.05,-0.62 -4.13,-0.02 -5.67,1.52l-12.64 12.64c-2.21,2.21 -2.25,5.3 -0.59,7.47 0.59,0.77 22.08,22.11 22.45,22.48z"/>
  </g>
 </g>
</svg>
