<?xml version="1.0" encoding="UTF-8"?>
<!DOCTYPE svg PUBLIC "-//W3C//DTD SVG 1.1//EN" "http://www.w3.org/Graphics/SVG/1.1/DTD/svg11.dtd">
<!-- Creator: CorelDRAW (Evaluation Version) -->
<svg xmlns="http://www.w3.org/2000/svg" xml:space="preserve" width="210mm" height="297mm" version="1.1" style="shape-rendering:geometricPrecision; text-rendering:geometricPrecision; image-rendering:optimizeQuality; fill-rule:evenodd; clip-rule:evenodd"
viewBox="0 0 21000 29700"
 xmlns:xlink="http://www.w3.org/1999/xlink"
 xmlns:xodm="http://www.corel.com/coreldraw/odm/2003">
 <defs>
  <style type="text/css">
   <![CDATA[
    .fil1 {fill:#ED3237}
    .fil0 {fill:#0C2141}
    .fil2 {fill:#201E1E;fill-rule:nonzero}
    .fil3 {fill:#0C2141;fill-rule:nonzero}
   ]]>
  </style>
 </defs>
 <g id="Layer_x0020_1">
  <metadata id="CorelCorpID_0Corel-Layer"/>
  <path class="fil0" d="M-18079.21 26188.6c-152.22,-164.69 -633.44,-660.48 -800.74,-800.73 113.98,-127.28 113.71,-127.48 252.87,-266.92 67.03,47.14 467.35,456.58 561.92,547.87l986.84 -979.86c84.75,75.76 189.33,171.04 263.42,235.32 -617.41,646.9 -621.25,643.76 -1264.31,1264.32zm2149.33 -889.75l0 80.07c-7.28,61.78 -31.92,127.02 -79.97,195.89 -80.61,115.52 -1280.83,1287.04 -1475.73,1488.38 -34.24,35.39 -67.76,56.52 -98.17,66.62l-80.27 0c-47.96,-19.96 -68.83,-78.25 -36.72,-140.54 356.84,-387.82 1367.31,-1385.42 1546.09,-1573.31 0,-126.68 -4.52,-169.82 -78.28,-230.77 -185.95,-153.62 -383.62,137.79 -529.29,283.45l-899.07 899.08c-88.18,88.18 -203.32,223.44 -349.08,240.95 -278.35,33.45 -368.28,-130.93 -460.5,-211.04 -167.28,-145.28 -346.87,-347.06 -505.79,-505.66 -114.92,-109.44 -279.61,-261.77 -310.67,-422.42 0,-89.95 -8.53,-132.17 34.62,-215.63 217.53,-280.81 1003.28,-1052.89 1310.47,-1358.65 106.27,-106.27 180.02,-200.4 397.31,-193.99 238.32,7.03 1581.83,1316.58 1615.05,1597.57z"/>
  <path class="fil1" d="M-16286.15 25740.29c2.44,-3.91 2.13,-7.49 2.92,-11.83 0.83,-4.61 1.6,-7.94 2.51,-12.53 1.68,-8.38 3.53,-16.06 4.71,-24.36 2.49,-17.49 15.31,-79.91 18.95,-98.12 0.89,-4.42 1.49,-7.41 2.38,-11.83 8.87,-43.97 2.28,-36.73 19.34,-40.22 25.21,-5.16 57.87,-10.09 84.2,-14.89l35.49 -6.26c7.31,-1.33 57.86,-9.74 61.24,-11.7l-208.77 -208.77c-20.11,-20.12 -38.36,-45.14 -62.63,-52.44 -22.9,-6.89 -46.13,-0.26 -63.33,16.94l-141.27 141.27c-24.7,24.71 -25.11,59.22 -6.63,83.51 6.54,8.6 246.74,247.07 250.89,251.23z"/>
  <g id="_2000184763600">
   <path class="fil2" d="M-20665.72 28895.87l-82.55 -222.25 -606.78 0 -81.84 222.25 -378.18 0 583.14 -1488.37 360.54 0 582.79 1488.37 -377.12 0zm-582.79 -505.53l394.76 0 -197.56 -531.29 -197.2 531.29zm1859.43 -553.86l299.51 0 0 961.32c0,174.27 -50.45,309.03 -151.7,403.93 -101.24,95.25 -242,142.52 -421.92,142.52 -165.81,0 -296.33,-35.28 -391.23,-106.19 -94.55,-70.9 -155.22,-166.51 -182.39,-286.45l335.14 0c33.52,89.6 110.07,134.41 229.31,134.41 70.91,0 128.76,-20.11 173.21,-59.97 44.45,-39.87 66.68,-100.55 66.68,-182.04l0 -27.87c-75.14,58.56 -168.98,87.84 -281.17,87.84 -159.1,0 -288.92,-50.44 -389.11,-151.69 -100.19,-101.25 -150.64,-232.48 -150.64,-393.7 0,-161.57 50.45,-292.81 150.64,-394.41 100.19,-101.6 230.01,-152.4 389.11,-152.4 134.41,0 242.36,45.51 324.56,136.17l0 -111.47zm-444.5 687.91c43.39,43.04 98.78,64.56 166.51,64.56 67.38,0 122.77,-21.52 166.16,-64.56 43.39,-43.03 65.26,-98.42 65.26,-165.8 0,-67.73 -21.87,-123.12 -65.26,-166.51 -43.39,-43.39 -98.78,-65.27 -166.16,-65.27 -67.73,0 -123.12,21.88 -166.51,65.27 -43.39,43.39 -65.27,98.78 -65.27,166.51 0,67.38 21.88,122.77 65.27,165.8zm2084.5 -157.69c0,33.87 -3.18,70.56 -9.17,110.42l-833.97 0c19.05,55.39 52.21,98.43 99.13,129.47 46.92,31.05 103.01,46.22 168.27,46.22 106.9,0 188.03,-38.1 243.07,-114.66l313.97 0c-34.22,117.83 -101.25,211.32 -200.38,280.11 -99.13,69.14 -218.72,103.36 -358.42,103.36 -180.62,0 -326.32,-51.15 -436.74,-153.81 -110.77,-102.66 -166.16,-236.36 -166.16,-401.11 0,-164.74 55.39,-298.45 166.16,-401.11 110.42,-102.65 256.12,-153.81 436.74,-153.81 172.16,0 311.5,51.16 418.04,153.81 106.19,102.66 159.46,236.37 159.46,401.11zm-580.68 -286.45c-62.79,0 -117.47,16.22 -164.04,48.33 -46.21,32.1 -79.37,76.2 -98.42,132.64l519.64 0c-17.99,-56.44 -49.39,-100.54 -94.54,-132.64 -45.16,-32.11 -99.49,-48.33 -162.64,-48.33zm1357.07 -268.47c148.17,0 259.29,46.22 333.38,139 74.08,92.42 111.12,220.84 111.12,384.88l0 560.21 -342.19 0 0 -545.75c0,-69.5 -16.58,-123.12 -49.39,-160.51 -33.16,-37.75 -76.91,-56.45 -131.24,-56.45 -60.67,0 -108.3,20.82 -142.17,62.45 -34.22,41.62 -51.15,101.95 -51.15,180.26l0 520 -342.19 0 0 -1058.34 303.74 0 0 88.91c79.37,-76.56 182.74,-114.66 310.09,-114.66zm1417.04 -397.93l342.2 0 0 1482.02 -295.63 0 0 -110.77c-82.2,91.01 -193.68,136.52 -335.14,136.52 -154.16,0 -280.81,-51.5 -380.3,-154.87 -99.13,-103.36 -148.87,-236.71 -148.87,-400.05 0,-163.33 49.74,-296.68 148.87,-400.05 99.49,-103.36 226.14,-154.87 380.3,-154.87 115.36,0 211.31,31.05 288.57,92.78l0 -490.71zm-397.93 1120.77c43.39,43.75 98.78,65.62 166.51,65.62 67.38,0 122.77,-21.87 166.16,-65.62 43.39,-43.74 65.26,-99.83 65.26,-167.92 0,-68.08 -21.87,-124.18 -65.26,-167.92 -43.39,-43.74 -98.78,-65.62 -166.16,-65.62 -67.73,0 -123.12,21.88 -166.51,65.62 -43.39,43.74 -65.27,99.84 -65.27,167.92 0,68.09 21.88,124.18 65.27,167.92z"/>
   <path class="fil3" d="M-13864.85 28366.7c0,33.87 -3.18,70.56 -9.17,110.42l-833.97 0c19.05,55.39 52.21,98.43 99.13,129.47 46.92,31.05 103.01,46.22 168.27,46.22 106.9,0 188.03,-38.1 243.07,-114.66l313.97 0c-34.22,117.83 -101.25,211.32 -200.38,280.11 -99.13,69.14 -218.72,103.36 -358.42,103.36 -180.62,0 -326.32,-51.15 -436.74,-153.81 -110.77,-102.66 -166.16,-236.36 -166.16,-401.11 0,-164.74 55.39,-298.45 166.16,-401.11 110.42,-102.65 256.12,-153.81 436.74,-153.81 172.16,0 311.5,51.16 418.04,153.81 106.19,102.66 159.46,236.37 159.46,401.11zm-580.68 -286.45c-62.79,0 -117.47,16.22 -164.04,48.33 -46.21,32.1 -79.37,76.2 -98.42,132.64l519.64 0c-17.99,-56.44 -49.39,-100.54 -94.54,-132.64 -45.16,-32.11 -99.49,-48.33 -162.64,-48.33zm1053.68 -465.32c-38.1,38.1 -84.31,57.15 -138.99,57.15 -54.33,0 -100.55,-19.05 -139,-57.15 -38.1,-38.45 -57.15,-84.66 -57.15,-138.99 0,-54.68 19.05,-100.9 57.15,-139 38.45,-38.45 84.67,-57.5 139,-57.5 54.68,0 100.89,19.05 138.99,57.5 38.45,38.1 57.5,84.32 57.5,139 0,54.33 -19.05,100.54 -57.5,138.99zm31.75 222.6l0 1058.34 -342.19 0 0 -1058.34 342.19 0z"/>
  </g>
  <path class="fil2" d="M-17400.72 29339.75c-26.21,0 -45.43,-4.81 -57.62,-14.45 -12.22,-9.67 -18.11,-23.62 -17.61,-41.85l32.8 0c-0.08,8.68 3.46,15.47 10.62,20.37 7.12,4.9 17.7,7.37 31.69,7.37 11.89,0 21.36,-2.14 28.32,-6.46 6.99,-4.28 10.49,-9.96 10.49,-17.04 0,-4.2 -1.23,-7.7 -3.79,-10.58 -2.51,-2.84 -5.92,-5.06 -10.16,-6.63 -4.28,-1.56 -9.18,-2.88 -14.65,-3.91 -5.52,-1.02 -11.32,-2.05 -17.45,-3 -6.1,-0.99 -12.23,-2.1 -18.4,-3.33 -6.13,-1.24 -11.98,-3.05 -17.45,-5.35 -5.52,-2.35 -10.41,-5.23 -14.65,-8.65 -4.28,-3.41 -7.66,-7.98 -10.21,-13.74 -2.51,-5.72 -3.79,-12.39 -3.79,-19.96 0,-16.71 6.05,-29.47 18.15,-38.28 12.1,-8.81 29.76,-13.21 52.97,-13.21 23.34,0 41.32,4.77 54.04,14.32 12.68,9.51 18.73,22.39 18.07,38.65l-32.89 0c0.37,-7.74 -2.84,-13.71 -9.71,-17.99 -6.87,-4.24 -16.87,-6.38 -29.96,-6.38 -11.81,0 -20.95,1.94 -27.37,5.85 -6.46,3.91 -9.67,9.42 -9.67,16.58 0,4.24 1.27,7.86 3.74,10.79 2.51,2.92 5.89,5.22 10.13,6.87 4.28,1.65 9.13,3.04 14.65,4.2 5.51,1.19 11.32,2.3 17.41,3.33 6.13,1.03 12.22,2.18 18.27,3.46 6.09,1.23 11.9,3 17.45,5.35 5.52,2.34 10.46,5.14 14.7,8.44 4.28,3.29 7.69,7.69 10.24,13.25 2.6,5.55 3.91,11.97 4,19.3 0.08,7.74 -1.32,14.73 -4.24,21.11 -2.88,6.34 -7.21,11.9 -12.97,16.63 -5.72,4.73 -13.29,8.44 -22.63,11.03 -9.39,2.64 -20.21,3.91 -32.52,3.91zm153.35 -175.78l0 172.9 -33.75 0 0 -172.9 33.75 0zm121.17 175.78c-26.21,0 -45.43,-4.81 -57.62,-14.45 -12.22,-9.67 -18.11,-23.62 -17.61,-41.85l32.8 0c-0.08,8.68 3.46,15.47 10.62,20.37 7.12,4.9 17.7,7.37 31.69,7.37 11.89,0 21.36,-2.14 28.32,-6.46 6.99,-4.28 10.49,-9.96 10.49,-17.04 0,-4.2 -1.23,-7.7 -3.79,-10.58 -2.51,-2.84 -5.92,-5.06 -10.16,-6.63 -4.28,-1.56 -9.18,-2.88 -14.65,-3.91 -5.52,-1.02 -11.32,-2.05 -17.45,-3 -6.1,-0.99 -12.23,-2.1 -18.4,-3.33 -6.13,-1.24 -11.98,-3.05 -17.45,-5.35 -5.52,-2.35 -10.41,-5.23 -14.65,-8.65 -4.28,-3.41 -7.66,-7.98 -10.21,-13.74 -2.51,-5.72 -3.79,-12.39 -3.79,-19.96 0,-16.71 6.05,-29.47 18.15,-38.28 12.1,-8.81 29.76,-13.21 52.97,-13.21 23.34,0 41.32,4.77 54.04,14.32 12.68,9.51 18.73,22.39 18.07,38.65l-32.89 0c0.37,-7.74 -2.84,-13.71 -9.71,-17.99 -6.87,-4.24 -16.87,-6.38 -29.96,-6.38 -11.81,0 -20.95,1.94 -27.37,5.85 -6.46,3.91 -9.67,9.42 -9.67,16.58 0,4.24 1.27,7.86 3.74,10.79 2.51,2.92 5.89,5.22 10.13,6.87 4.28,1.65 9.13,3.04 14.65,4.2 5.51,1.19 11.32,2.3 17.41,3.33 6.13,1.03 12.22,2.18 18.27,3.46 6.09,1.23 11.9,3 17.45,5.35 5.52,2.34 10.46,5.14 14.7,8.44 4.28,3.29 7.69,7.69 10.24,13.25 2.6,5.55 3.91,11.97 4,19.3 0.08,7.74 -1.32,14.73 -4.24,21.11 -2.88,6.34 -7.21,11.9 -12.97,16.63 -5.72,4.73 -13.29,8.44 -22.63,11.03 -9.39,2.64 -20.21,3.91 -32.52,3.91zm251.02 -175.78l0 30.25 -55.23 0 0 142.65 -33.75 0 0 -142.65 -55.23 0 0 -30.25 144.21 0zm171.42 30.25l-97.54 0 0 38.61 87.42 0 0 27.61 -87.42 0 0 46.18 97.54 0 0 30.25 -131.29 0 0 -172.9 131.29 0 0 30.25zm199.45 -30.25l46.18 0 0 172.9 -33.79 0 0 -124.42 -48.69 124.42 -32.31 0 -48.85 -124.54 0 124.54 -33.75 0 0 -172.9 46.18 0 52.56 133.72 52.47 -133.72zm219.41 172.9l-11.69 -30.37 -77.78 0 -11.82 30.37 -35.18 0 69.06 -173.64 33.54 0 69.18 173.64 -35.31 0zm-78.86 -57.87l56.55 0 -28.35 -73.34 -28.2 73.34zm292.95 -115.03c29.64,0 52.68,7.41 69.15,22.23 16.42,14.85 24.65,35.6 24.65,62.31 0,27.94 -8.23,49.67 -24.65,65.15 -16.47,15.47 -39.51,23.21 -69.15,23.21l-58.73 0 0 -172.9 58.73 0zm0 142.65c18.65,0 33.09,-5.1 43.34,-15.27 10.25,-10.16 15.35,-24.45 15.35,-42.84 0,-17.21 -5.1,-30.58 -15.35,-40.05 -10.25,-9.51 -24.69,-14.24 -43.34,-14.24l-24.98 0 0 112.4 24.98 0zm269.66 -112.4l-97.54 0 0 38.61 87.42 0 0 27.61 -87.42 0 0 46.18 97.54 0 0 30.25 -131.29 0 0 -172.9 131.29 0 0 30.25zm255.59 142.65l-11.69 -30.37 -77.78 0 -11.82 30.37 -35.18 0 69.06 -173.64 33.54 0 69.18 173.64 -35.31 0zm-78.86 -57.87l56.55 0 -28.35 -73.34 -28.2 73.34zm226.9 -35.23l85.53 0 0 93.1 -29.06 0 0 -21.69c-13.83,16.46 -33.75,24.69 -59.72,24.69 -26.58,0 -47.61,-8.14 -63.09,-24.44 -15.47,-16.34 -23.21,-38.48 -23.21,-66.47 0,-27 7.9,-48.4 23.66,-64.12 15.81,-15.77 37.29,-23.71 64.45,-23.79 23.26,0 42.4,5.55 57.42,16.58 15.02,11.08 24.44,26.84 28.19,47.34l-36.05 0c-3.21,-10.62 -9.14,-18.65 -17.82,-24.12 -8.69,-5.48 -19.27,-8.19 -31.74,-8.19 -16.21,0.08 -29.09,5.18 -38.64,15.27 -9.51,10.08 -14.28,23.74 -14.28,41.03 0,18.19 4.73,32.6 14.24,43.26 9.46,10.61 22.39,15.96 38.68,15.96 13.83,0 25.27,-3.49 34.33,-10.45 9.01,-6.96 14.53,-16.83 16.46,-29.72l-49.35 0 0 -24.24zm264.19 -49.55l-97.54 0 0 38.61 87.42 0 0 27.61 -87.42 0 0 46.18 97.54 0 0 30.25 -131.29 0 0 -172.9 131.29 0 0 30.25zm170.15 -30.25l33.62 0 0 172.9 -37.49 0 -84.29 -126.15 0 126.15 -33.75 0 0 -172.9 37.99 0 83.92 125.53 0 -125.53zm141.53 0c29.64,0 52.68,7.41 69.15,22.23 16.42,14.85 24.65,35.6 24.65,62.31 0,27.94 -8.23,49.67 -24.65,65.15 -16.47,15.47 -39.51,23.21 -69.15,23.21l-58.73 0 0 -172.9 58.73 0zm0 142.65c18.65,0 33.09,-5.1 43.34,-15.27 10.25,-10.16 15.35,-24.45 15.35,-42.84 0,-17.21 -5.1,-30.58 -15.35,-40.05 -10.25,-9.51 -24.69,-14.24 -43.34,-14.24l-24.98 0 0 112.4 24.98 0zm251.02 30.25l-11.69 -30.37 -77.78 0 -11.82 30.37 -35.18 0 69.06 -173.64 33.54 0 69.18 173.64 -35.31 0zm-78.86 -57.87l56.55 0 -28.35 -73.34 -28.2 73.34zm302.01 -115.03l46.18 0 0 172.9 -33.79 0 0 -124.42 -48.69 124.42 -32.31 0 -48.85 -124.54 0 124.54 -33.75 0 0 -172.9 46.18 0 52.56 133.72 52.47 -133.72zm226.77 30.25l-97.54 0 0 38.61 87.42 0 0 27.61 -87.42 0 0 46.18 97.54 0 0 30.25 -131.29 0 0 -172.9 131.29 0 0 30.25zm170.15 -30.25l33.62 0 0 172.9 -37.49 0 -84.29 -126.15 0 126.15 -33.75 0 0 -172.9 37.99 0 83.92 125.53 0 -125.53zm217.96 0l0 30.25 -55.23 0 0 142.65 -33.75 0 0 -142.65 -55.23 0 0 -30.25 144.21 0zm184.84 150.96c-16.42,16.63 -38.07,24.94 -65.03,24.94 -26.92,0 -48.56,-8.31 -64.9,-24.94 -16.38,-16.62 -24.53,-38.68 -24.53,-66.09 0,-17.37 3.7,-32.68 11.07,-45.98 7.41,-13.33 17.86,-23.62 31.4,-30.86 13.54,-7.29 29.22,-10.95 47,-10.95 26.92,0 48.57,8.07 64.99,24.12 16.38,16.09 24.57,37.33 24.57,63.67 0,27.41 -8.19,49.47 -24.57,66.09zm-64.99 -6.75c16.47,0 29.68,-5.39 39.6,-16.17 9.91,-10.78 14.89,-25.15 14.89,-43.17 0,-16.96 -4.98,-30.54 -14.89,-40.79 -9.92,-10.25 -23.13,-15.39 -39.6,-15.39 -16.5,0.08 -29.67,5.22 -39.51,15.43 -9.83,10.21 -14.77,23.79 -14.77,40.75 0,18.02 4.94,32.39 14.85,43.17 9.88,10.78 23.01,16.17 39.43,16.17zm206.03 31.57c-26.21,0 -45.43,-4.81 -57.62,-14.45 -12.22,-9.67 -18.11,-23.62 -17.61,-41.85l32.8 0c-0.08,8.68 3.46,15.47 10.62,20.37 7.12,4.9 17.7,7.37 31.69,7.37 11.89,0 21.36,-2.14 28.32,-6.46 6.99,-4.28 10.49,-9.96 10.49,-17.04 0,-4.2 -1.23,-7.7 -3.79,-10.58 -2.51,-2.84 -5.92,-5.06 -10.16,-6.63 -4.28,-1.56 -9.18,-2.88 -14.65,-3.91 -5.52,-1.02 -11.32,-2.05 -17.45,-3 -6.1,-0.99 -12.23,-2.1 -18.4,-3.33 -6.13,-1.24 -11.98,-3.05 -17.45,-5.35 -5.52,-2.35 -10.41,-5.23 -14.65,-8.65 -4.28,-3.41 -7.66,-7.98 -10.21,-13.74 -2.51,-5.72 -3.79,-12.39 -3.79,-19.96 0,-16.71 6.05,-29.47 18.15,-38.28 12.1,-8.81 29.76,-13.21 52.97,-13.21 23.34,0 41.32,4.77 54.04,14.32 12.68,9.51 18.73,22.39 18.07,38.65l-32.89 0c0.37,-7.74 -2.84,-13.71 -9.71,-17.99 -6.87,-4.24 -16.87,-6.38 -29.96,-6.38 -11.81,0 -20.95,1.94 -27.37,5.85 -6.46,3.91 -9.67,9.42 -9.67,16.58 0,4.24 1.27,7.86 3.74,10.79 2.51,2.92 5.89,5.22 10.13,6.87 4.28,1.65 9.13,3.04 14.65,4.2 5.51,1.19 11.32,2.3 17.41,3.33 6.13,1.03 12.22,2.18 18.27,3.46 6.09,1.23 11.9,3 17.45,5.35 5.52,2.34 10.46,5.14 14.7,8.44 4.28,3.29 7.69,7.69 10.24,13.25 2.6,5.55 3.91,11.97 4,19.3 0.08,7.74 -1.32,14.73 -4.24,21.11 -2.88,6.34 -7.21,11.9 -12.97,16.63 -5.72,4.73 -13.29,8.44 -22.63,11.03 -9.39,2.64 -20.21,3.91 -32.52,3.91z"/>
 </g>
</svg>
