<?xml version="1.0" encoding="UTF-8"?>
<!DOCTYPE svg PUBLIC "-//W3C//DTD SVG 1.1//EN" "http://www.w3.org/Graphics/SVG/1.1/DTD/svg11.dtd">
<!-- Creator: CorelDRAW (Versão de avaliação) -->
<svg xmlns="http://www.w3.org/2000/svg" xml:space="preserve" width="33.5814mm" height="34.2884mm" version="1.1" style="shape-rendering:geometricPrecision; text-rendering:geometricPrecision; image-rendering:optimizeQuality; fill-rule:evenodd; clip-rule:evenodd"
viewBox="0 0 742.79 758.42"
 xmlns:xlink="http://www.w3.org/1999/xlink"
 xmlns:xodm="http://www.corel.com/coreldraw/odm/2003">
 <defs>
  <style type="text/css">
   <![CDATA[
    .fil0 {fill:#F7F7F7}
   ]]>
  </style>
 </defs>
 <g id="Layer_x0020_1">
  <metadata id="CorelCorpID_0Corel-Layer"/>
  <g id="_1647876883952">
   <path class="fil0" d="M267.38 550.24c-33.67,-36.43 -140.11,-146.09 -177.12,-177.11 25.21,-28.15 25.15,-28.2 55.93,-59.04 14.83,10.43 103.37,100.99 124.29,121.18l218.28 -216.73c18.75,16.76 41.88,37.83 58.27,52.05 -136.56,143.09 -137.41,142.39 -279.65,279.65zm475.41 -196.8l0 17.71c-1.61,13.67 -7.06,28.1 -17.69,43.33 -17.83,25.55 -283.31,284.68 -326.42,329.21 -7.57,7.83 -14.99,12.5 -21.71,14.74l-17.75 0c-10.61,-4.41 -15.22,-17.31 -8.12,-31.09 78.93,-85.78 302.43,-306.44 341.98,-348 0,-28.02 -1,-37.56 -17.31,-51.04 -41.13,-33.98 -84.85,30.48 -117.07,62.7l-198.86 198.87c-19.5,19.5 -44.97,49.42 -77.21,53.3 -61.57,7.4 -81.46,-28.96 -101.86,-46.68 -37,-32.13 -76.72,-76.77 -111.88,-111.85 -25.42,-24.21 -61.85,-57.9 -68.72,-93.43 0,-19.9 -1.89,-29.23 7.66,-47.7 48.12,-62.11 221.92,-232.89 289.86,-300.52 23.51,-23.51 39.82,-44.33 87.88,-42.91 52.71,1.55 349.88,291.21 357.23,353.37z"/>
   <path class="fil0" d="M663.98 451.08c0.54,-0.86 0.47,-1.66 0.65,-2.62 0.18,-1.02 0.35,-1.76 0.56,-2.77 0.37,-1.85 0.78,-3.55 1.04,-5.39 0.55,-3.87 3.39,-17.68 4.19,-21.7 0.2,-0.98 0.33,-1.64 0.53,-2.62 1.96,-9.73 0.5,-8.12 4.28,-8.9 5.58,-1.14 12.8,-2.23 18.62,-3.29l7.85 -1.38c1.62,-0.29 12.8,-2.15 13.55,-2.59l-46.18 -46.18c-4.45,-4.45 -8.48,-9.98 -13.85,-11.6 -5.07,-1.52 -10.2,-0.06 -14.01,3.75l-31.25 31.25c-5.46,5.47 -5.55,13.1 -1.47,18.47 1.45,1.9 54.58,54.65 55.49,55.57z"/>
  </g>
 </g>
</svg>
